<svg width="32" height="32" viewBox="0 0 32 32" fill="none" xmlns="http://www.w3.org/2000/svg">
<path d="M18.6667 2.66666V7.99999C18.6667 8.70723 18.9477 9.38551 19.4478 9.88561C19.9479 10.3857 20.6262 10.6667 21.3334 10.6667H26.6667" stroke="#A1A1A1" stroke-width="2.5" stroke-linecap="round" stroke-linejoin="round"/>
<path d="M5.33325 9.33332V5.33332C5.33325 4.62608 5.6142 3.9478 6.1143 3.4477C6.6144 2.94761 7.29267 2.66666 7.99992 2.66666" stroke="#A1A1A1" stroke-width="2.5" stroke-linecap="round" stroke-linejoin="round"/>
<path d="M5.41724 27.9987C5.67838 28.4612 6.07172 28.8353 6.54683 29.0728C7.02194 29.3104 7.55717 29.4006 8.0839 29.332L23.9999 29.3333C24.7071 29.3333 25.3854 29.0524 25.8855 28.5523C26.3856 28.0522 26.6666 27.3739 26.6666 26.6667V9.33332L19.9999 2.66666H7.9999" stroke="#A1A1A1" stroke-width="2.5" stroke-linecap="round" stroke-linejoin="round"/>
<path d="M6.66675 14.6667L2.66675 18.6667" stroke="#A1A1A1" stroke-width="2.5" stroke-linecap="round" stroke-linejoin="round"/>
<path d="M6.66675 22.6667L2.66675 18.6667H16.0001" stroke="#A1A1A1" stroke-width="2.5" stroke-linecap="round" stroke-linejoin="round"/>
</svg>
