<svg width="257" height="120" viewBox="0 0 257 120" fill="none" xmlns="http://www.w3.org/2000/svg">
<rect width="257" height="120" rx="24" fill="white"/>
<path d="M29.3333 62.3333H47.9999C48.7072 62.3333 49.3854 62.0524 49.8855 61.5523C50.3856 61.0522 50.6666 60.3739 50.6666 59.6667V42.3333L43.9999 35.6667H31.9999C31.2927 35.6667 30.6144 35.9476 30.1143 36.4477C29.6142 36.9478 29.3333 37.6261 29.3333 38.3333V43.6667" stroke="#4467A1" stroke-width="2.5" stroke-linecap="round" stroke-linejoin="round"/>
<path d="M42.6667 35.6667V41C42.6667 41.7072 42.9477 42.3855 43.4478 42.8856C43.9479 43.3857 44.6262 43.6667 45.3334 43.6667H50.6667" stroke="#4467A1" stroke-width="2.5" stroke-linecap="round" stroke-linejoin="round"/>
<path d="M28 53H36" stroke="#4467A1" stroke-width="2.5" stroke-linecap="round" stroke-linejoin="round"/>
<path d="M32 49V57" stroke="#4467A1" stroke-width="2.5" stroke-linecap="round" stroke-linejoin="round"/>
<path d="M83.864 57V40.128H87.08V57H83.864ZM80.552 42.96V40.128H86.84V42.96H80.552ZM94.8125 57.24C93.6445 57.24 92.5805 57.04 91.6205 56.64C90.6605 56.224 89.8605 55.632 89.2205 54.864L91.3805 52.728C91.7005 53.208 92.1565 53.592 92.7485 53.88C93.3565 54.168 94.0205 54.312 94.7405 54.312C95.3965 54.312 95.9645 54.192 96.4445 53.952C96.9405 53.712 97.3245 53.376 97.5965 52.944C97.8845 52.496 98.0285 51.976 98.0285 51.384C98.0285 50.76 97.8845 50.232 97.5965 49.8C97.3245 49.368 96.9565 49.04 96.4925 48.816C96.0285 48.592 95.5085 48.48 94.9325 48.48C94.3245 48.48 93.7725 48.56 93.2765 48.72C92.7965 48.864 92.3325 49.104 91.8845 49.44L92.0765 47.376C92.3805 47.056 92.7005 46.8 93.0365 46.608C93.3725 46.4 93.7485 46.248 94.1645 46.152C94.5965 46.04 95.1005 45.984 95.6765 45.984C96.9085 45.984 97.9325 46.24 98.7485 46.752C99.5805 47.248 100.213 47.92 100.645 48.768C101.077 49.6 101.293 50.52 101.293 51.528C101.293 52.632 101.021 53.616 100.477 54.48C99.9325 55.344 99.1725 56.024 98.1965 56.52C97.2365 57 96.1085 57.24 94.8125 57.24ZM91.8845 49.44L90.3245 47.904L91.0925 40.128H94.0445L93.1805 48.024L91.8845 49.44ZM91.5965 42.96L91.0925 40.128H100.357V42.96H91.5965ZM108.078 57V45.896H109.582V57H108.078ZM117.323 57V52.568C117.323 51.992 117.141 51.5173 116.779 51.144C116.416 50.7707 115.947 50.584 115.371 50.584C114.987 50.584 114.645 50.6693 114.347 50.84C114.048 51.0107 113.813 51.2453 113.643 51.544C113.472 51.8427 113.387 52.184 113.387 52.568L112.795 52.232C112.795 51.656 112.923 51.144 113.179 50.696C113.435 50.248 113.792 49.896 114.251 49.64C114.709 49.3733 115.227 49.24 115.803 49.24C116.379 49.24 116.885 49.384 117.323 49.672C117.771 49.96 118.123 50.3387 118.379 50.808C118.635 51.2667 118.763 51.7573 118.763 52.28V57H117.323ZM111.947 57V49.4H113.387V57H111.947ZM123.32 57L119.832 49.4H121.432L124.232 55.816H123.304L126.12 49.4H127.656L124.168 57H123.32ZM132.059 57.16C131.313 57.16 130.641 56.984 130.043 56.632C129.446 56.28 128.971 55.8053 128.619 55.208C128.267 54.6 128.091 53.9227 128.091 53.176C128.091 52.44 128.267 51.7787 128.619 51.192C128.971 50.5947 129.446 50.12 130.043 49.768C130.641 49.416 131.313 49.24 132.059 49.24C132.795 49.24 133.462 49.416 134.059 49.768C134.667 50.1093 135.147 50.5787 135.499 51.176C135.851 51.7733 136.027 52.44 136.027 53.176C136.027 53.9227 135.851 54.6 135.499 55.208C135.147 55.8053 134.667 56.28 134.059 56.632C133.462 56.984 132.795 57.16 132.059 57.16ZM132.059 55.768C132.539 55.768 132.966 55.656 133.339 55.432C133.713 55.208 134.006 54.904 134.219 54.52C134.433 54.1253 134.539 53.6773 134.539 53.176C134.539 52.6853 134.427 52.248 134.203 51.864C133.99 51.48 133.697 51.1813 133.323 50.968C132.961 50.744 132.539 50.632 132.059 50.632C131.579 50.632 131.153 50.744 130.779 50.968C130.406 51.1813 130.113 51.48 129.899 51.864C129.686 52.248 129.579 52.6853 129.579 53.176C129.579 53.6773 129.686 54.1253 129.899 54.52C130.113 54.904 130.406 55.208 130.779 55.432C131.153 55.656 131.579 55.768 132.059 55.768ZM137.666 57V49.4H139.106V57H137.666ZM138.386 47.88C138.119 47.88 137.9 47.7947 137.73 47.624C137.559 47.4427 137.474 47.2187 137.474 46.952C137.474 46.696 137.559 46.4827 137.73 46.312C137.9 46.1307 138.119 46.04 138.386 46.04C138.652 46.04 138.871 46.1307 139.042 46.312C139.212 46.4827 139.298 46.696 139.298 46.952C139.298 47.2187 139.212 47.4427 139.042 47.624C138.871 47.7947 138.652 47.88 138.386 47.88ZM144.7 57.16C143.953 57.16 143.276 56.984 142.668 56.632C142.071 56.28 141.596 55.8053 141.244 55.208C140.903 54.6 140.732 53.928 140.732 53.192C140.732 52.4453 140.903 51.7733 141.244 51.176C141.596 50.5787 142.071 50.1093 142.668 49.768C143.276 49.416 143.953 49.24 144.7 49.24C145.287 49.24 145.831 49.352 146.332 49.576C146.833 49.7893 147.265 50.104 147.628 50.52L146.668 51.48C146.433 51.2027 146.145 50.9947 145.804 50.856C145.473 50.7067 145.105 50.632 144.7 50.632C144.22 50.632 143.793 50.744 143.42 50.968C143.047 51.1813 142.753 51.48 142.54 51.864C142.327 52.248 142.22 52.6907 142.22 53.192C142.22 53.6933 142.327 54.136 142.54 54.52C142.753 54.904 143.047 55.208 143.42 55.432C143.793 55.656 144.22 55.768 144.7 55.768C145.105 55.768 145.473 55.6987 145.804 55.56C146.145 55.4107 146.439 55.1973 146.684 54.92L147.628 55.88C147.276 56.2853 146.844 56.6 146.332 56.824C145.831 57.048 145.287 57.16 144.7 57.16ZM152.42 57.16C151.662 57.16 150.98 56.9893 150.372 56.648C149.764 56.296 149.284 55.8213 148.932 55.224C148.58 54.6267 148.404 53.9493 148.404 53.192C148.404 52.4453 148.574 51.7733 148.916 51.176C149.268 50.5787 149.737 50.1093 150.324 49.768C150.921 49.416 151.588 49.24 152.324 49.24C153.028 49.24 153.646 49.4 154.18 49.72C154.724 50.04 155.145 50.4827 155.444 51.048C155.753 51.6133 155.908 52.2533 155.908 52.968C155.908 53.0747 155.902 53.192 155.892 53.32C155.881 53.4373 155.86 53.576 155.828 53.736H149.412V52.536H155.06L154.532 53C154.532 52.488 154.441 52.056 154.26 51.704C154.078 51.3413 153.822 51.064 153.492 50.872C153.161 50.6693 152.761 50.568 152.292 50.568C151.801 50.568 151.369 50.6747 150.996 50.888C150.622 51.1013 150.334 51.4 150.132 51.784C149.929 52.168 149.828 52.6213 149.828 53.144C149.828 53.6773 149.934 54.1467 150.148 54.552C150.361 54.9467 150.665 55.256 151.06 55.48C151.454 55.6933 151.908 55.8 152.42 55.8C152.846 55.8 153.236 55.7253 153.588 55.576C153.95 55.4267 154.26 55.2027 154.516 54.904L155.444 55.848C155.081 56.2747 154.633 56.6 154.1 56.824C153.577 57.048 153.017 57.16 152.42 57.16ZM159.894 57.16C159.467 57.16 159.062 57.1067 158.678 57C158.305 56.8827 157.958 56.7227 157.638 56.52C157.318 56.3067 157.041 56.056 156.806 55.768L157.734 54.84C158.011 55.1813 158.331 55.4373 158.694 55.608C159.057 55.768 159.462 55.848 159.91 55.848C160.358 55.848 160.705 55.7733 160.95 55.624C161.195 55.464 161.318 55.2453 161.318 54.968C161.318 54.6907 161.217 54.4773 161.014 54.328C160.822 54.168 160.571 54.04 160.262 53.944C159.953 53.8373 159.622 53.736 159.27 53.64C158.929 53.5333 158.603 53.4 158.294 53.24C157.985 53.08 157.729 52.8613 157.526 52.584C157.334 52.3067 157.238 51.9387 157.238 51.48C157.238 51.0213 157.35 50.6267 157.574 50.296C157.798 49.9547 158.107 49.6933 158.502 49.512C158.907 49.3307 159.393 49.24 159.958 49.24C160.555 49.24 161.083 49.3467 161.542 49.56C162.011 49.7627 162.395 50.072 162.694 50.488L161.766 51.416C161.553 51.1387 161.286 50.9253 160.966 50.776C160.657 50.6267 160.305 50.552 159.91 50.552C159.494 50.552 159.174 50.6267 158.95 50.776C158.737 50.9147 158.63 51.112 158.63 51.368C158.63 51.624 158.726 51.8213 158.918 51.96C159.11 52.0987 159.361 52.216 159.67 52.312C159.99 52.408 160.321 52.5093 160.662 52.616C161.003 52.712 161.329 52.8453 161.638 53.016C161.947 53.1867 162.198 53.416 162.39 53.704C162.593 53.992 162.694 54.3707 162.694 54.84C162.694 55.5547 162.438 56.12 161.926 56.536C161.425 56.952 160.747 57.16 159.894 57.16Z" fill="#505050"/>
<path d="M83.252 83.12C82.588 83.12 82.024 83 81.56 82.76C81.096 82.52 80.68 82.168 80.312 81.704L81.248 80.768C81.48 81.104 81.756 81.368 82.076 81.56C82.396 81.744 82.804 81.836 83.3 81.836C83.764 81.836 84.132 81.74 84.404 81.548C84.684 81.356 84.824 81.092 84.824 80.756C84.824 80.476 84.752 80.248 84.608 80.072C84.464 79.896 84.272 79.752 84.032 79.64C83.8 79.52 83.54 79.416 83.252 79.328C82.972 79.232 82.688 79.128 82.4 79.016C82.12 78.896 81.86 78.748 81.62 78.572C81.388 78.396 81.2 78.168 81.056 77.888C80.912 77.608 80.84 77.252 80.84 76.82C80.84 76.324 80.96 75.904 81.2 75.56C81.448 75.208 81.78 74.94 82.196 74.756C82.612 74.572 83.076 74.48 83.588 74.48C84.14 74.48 84.632 74.588 85.064 74.804C85.504 75.02 85.86 75.296 86.132 75.632L85.196 76.568C84.956 76.296 84.704 76.096 84.44 75.968C84.184 75.832 83.888 75.764 83.552 75.764C83.136 75.764 82.808 75.848 82.568 76.016C82.336 76.184 82.22 76.42 82.22 76.724C82.22 76.98 82.292 77.188 82.436 77.348C82.58 77.5 82.768 77.632 83 77.744C83.24 77.848 83.5 77.948 83.78 78.044C84.068 78.14 84.352 78.248 84.632 78.368C84.92 78.488 85.18 78.644 85.412 78.836C85.652 79.02 85.844 79.26 85.988 79.556C86.132 79.852 86.204 80.224 86.204 80.672C86.204 81.424 85.936 82.02 85.4 82.46C84.872 82.9 84.156 83.12 83.252 83.12ZM91.7063 83.12C91.0983 83.12 90.5343 83.012 90.0143 82.796C89.5023 82.572 89.0543 82.264 88.6703 81.872C88.2863 81.472 87.9903 81.012 87.7823 80.492C87.5743 79.964 87.4703 79.4 87.4703 78.8C87.4703 78.2 87.5743 77.64 87.7823 77.12C87.9903 76.592 88.2863 76.132 88.6703 75.74C89.0543 75.348 89.5023 75.04 90.0143 74.816C90.5343 74.592 91.0983 74.48 91.7063 74.48C92.3863 74.48 92.9743 74.592 93.4703 74.816C93.9663 75.04 94.4063 75.344 94.7903 75.728L93.8543 76.664C93.6063 76.392 93.3023 76.18 92.9423 76.028C92.5903 75.876 92.1783 75.8 91.7063 75.8C91.2903 75.8 90.9103 75.872 90.5663 76.016C90.2223 76.16 89.9223 76.368 89.6663 76.64C89.4183 76.904 89.2263 77.22 89.0903 77.588C88.9543 77.956 88.8863 78.36 88.8863 78.8C88.8863 79.24 88.9543 79.644 89.0903 80.012C89.2263 80.38 89.4183 80.7 89.6663 80.972C89.9223 81.236 90.2223 81.44 90.5663 81.584C90.9103 81.728 91.2903 81.8 91.7063 81.8C92.2183 81.8 92.6503 81.724 93.0023 81.572C93.3623 81.412 93.6663 81.196 93.9143 80.924L94.8503 81.86C94.4663 82.252 94.0143 82.56 93.4943 82.784C92.9743 83.008 92.3783 83.12 91.7063 83.12ZM96.3217 83V74.6H97.7017V83H96.3217ZM101.662 83V74.6H103.042V83H101.662ZM97.2697 79.28V78.02H101.962V79.28H97.2697ZM105.105 83V74.6H106.485V83H105.105ZM106.053 83V81.74H110.757V83H106.053ZM106.053 79.316V78.104H110.349V79.316H106.053ZM106.053 75.86V74.6H110.697V75.86H106.053ZM113.371 83V81.74H115.579C116.155 81.74 116.659 81.616 117.091 81.368C117.531 81.12 117.871 80.776 118.111 80.336C118.359 79.888 118.483 79.372 118.483 78.788C118.483 78.212 118.359 77.704 118.111 77.264C117.863 76.824 117.519 76.48 117.079 76.232C116.647 75.984 116.147 75.86 115.579 75.86H113.371V74.6H115.615C116.223 74.6 116.787 74.708 117.307 74.924C117.827 75.132 118.279 75.428 118.663 75.812C119.055 76.188 119.359 76.632 119.575 77.144C119.791 77.648 119.899 78.2 119.899 78.8C119.899 79.392 119.791 79.944 119.575 80.456C119.359 80.968 119.059 81.416 118.675 81.8C118.291 82.176 117.839 82.472 117.319 82.688C116.799 82.896 116.239 83 115.639 83H113.371ZM112.423 83V74.6H113.803V83H112.423ZM124.786 83.12C124.154 83.12 123.586 82.976 123.082 82.688C122.578 82.4 122.178 82.008 121.882 81.512C121.594 81.008 121.45 80.44 121.45 79.808V74.6H122.83V79.796C122.83 80.204 122.914 80.56 123.082 80.864C123.258 81.16 123.494 81.392 123.79 81.56C124.086 81.72 124.418 81.8 124.786 81.8C125.162 81.8 125.494 81.72 125.782 81.56C126.07 81.392 126.298 81.16 126.466 80.864C126.634 80.56 126.718 80.208 126.718 79.808V74.6H128.098V79.82C128.098 80.452 127.954 81.016 127.666 81.512C127.378 82.008 126.986 82.4 126.49 82.688C125.994 82.976 125.426 83.12 124.786 83.12ZM130.071 83V74.6H131.451V83H130.071ZM131.019 83V81.74H135.411V83H131.019ZM136.908 83V74.6H138.288V83H136.908ZM137.856 83V81.74H142.56V83H137.856ZM137.856 79.316V78.104H142.152V79.316H137.856ZM137.856 75.86V74.6H142.5V75.86H137.856ZM145.175 83V81.74H147.383C147.959 81.74 148.463 81.616 148.895 81.368C149.335 81.12 149.675 80.776 149.915 80.336C150.163 79.888 150.287 79.372 150.287 78.788C150.287 78.212 150.163 77.704 149.915 77.264C149.667 76.824 149.323 76.48 148.883 76.232C148.451 75.984 147.951 75.86 147.383 75.86H145.175V74.6H147.419C148.027 74.6 148.591 74.708 149.111 74.924C149.631 75.132 150.083 75.428 150.467 75.812C150.859 76.188 151.163 76.632 151.379 77.144C151.595 77.648 151.703 78.2 151.703 78.8C151.703 79.392 151.595 79.944 151.379 80.456C151.163 80.968 150.863 81.416 150.479 81.8C150.095 82.176 149.643 82.472 149.123 82.688C148.603 82.896 148.043 83 147.443 83H145.175ZM144.227 83V74.6H145.607V83H144.227ZM157.916 83V74.84H159.296V83H157.916ZM155.18 75.86V74.6H162.032V75.86H155.18ZM163.474 83V74.6H164.854V83H163.474ZM168.814 83V74.6H170.194V83H168.814ZM164.422 79.28V78.02H169.114V79.28H164.422ZM172.257 83V74.6H173.637V83H172.257ZM177.872 83.12C177.208 83.12 176.644 83 176.18 82.76C175.716 82.52 175.3 82.168 174.932 81.704L175.868 80.768C176.1 81.104 176.376 81.368 176.696 81.56C177.016 81.744 177.424 81.836 177.92 81.836C178.384 81.836 178.752 81.74 179.024 81.548C179.304 81.356 179.444 81.092 179.444 80.756C179.444 80.476 179.372 80.248 179.228 80.072C179.084 79.896 178.892 79.752 178.652 79.64C178.42 79.52 178.16 79.416 177.872 79.328C177.592 79.232 177.308 79.128 177.02 79.016C176.74 78.896 176.48 78.748 176.24 78.572C176.008 78.396 175.82 78.168 175.676 77.888C175.532 77.608 175.46 77.252 175.46 76.82C175.46 76.324 175.58 75.904 175.82 75.56C176.068 75.208 176.4 74.94 176.816 74.756C177.232 74.572 177.696 74.48 178.208 74.48C178.76 74.48 179.252 74.588 179.684 74.804C180.124 75.02 180.48 75.296 180.752 75.632L179.816 76.568C179.576 76.296 179.324 76.096 179.06 75.968C178.804 75.832 178.508 75.764 178.172 75.764C177.756 75.764 177.428 75.848 177.188 76.016C176.956 76.184 176.84 76.42 176.84 76.724C176.84 76.98 176.912 77.188 177.056 77.348C177.2 77.5 177.388 77.632 177.62 77.744C177.86 77.848 178.12 77.948 178.4 78.044C178.688 78.14 178.972 78.248 179.252 78.368C179.54 78.488 179.8 78.644 180.032 78.836C180.272 79.02 180.464 79.26 180.608 79.556C180.752 79.852 180.824 80.224 180.824 80.672C180.824 81.424 180.556 82.02 180.02 82.46C179.492 82.9 178.776 83.12 177.872 83.12ZM187.242 83L184.482 74.6H185.838L187.914 81.068H187.554L189.582 74.6H190.542L192.57 81.068H192.21L194.286 74.6H195.642L192.882 83H191.922L189.882 76.544H190.242L188.202 83H187.242ZM197.111 83V74.6H198.491V83H197.111ZM198.059 83V81.74H202.763V83H198.059ZM198.059 79.316V78.104H202.355V79.316H198.059ZM198.059 75.86V74.6H202.703V75.86H198.059ZM204.43 83V74.6H205.81V83H204.43ZM205.378 83V81.74H210.082V83H205.378ZM205.378 79.316V78.104H209.674V79.316H205.378ZM205.378 75.86V74.6H210.022V75.86H205.378ZM216.824 83L212.936 78.62L216.74 74.6H218.504L214.304 78.968L214.316 78.212L218.624 83H216.824ZM211.748 83V74.6H213.128V83H211.748Z" fill="#A1A1A1"/>
</svg>
