<svg width="450" height="447" viewBox="0 0 450 447" fill="none" xmlns="http://www.w3.org/2000/svg">
<g id="No Upcoming Trips">
<g id="Group 3">
<mask id="mask0_96_219" style="mask-type:luminance" maskUnits="userSpaceOnUse" x="41" y="96" width="378" height="216">
<path id="Clip 2" fill-rule="evenodd" clip-rule="evenodd" d="M134.789 134.821H86.5227C80.2511 134.821 75.1214 139.968 75.1214 146.259C75.1214 152.551 80.2511 157.697 86.5227 157.697H111.086H118.284C124.556 157.697 129.686 162.845 129.686 169.137C129.686 172.281 128.4 175.147 126.333 177.212C124.274 179.288 121.417 180.576 118.284 180.576H102.927H94.4481H53.079C46.8074 180.576 41.6777 185.724 41.6777 192.014C41.6777 198.304 46.8074 203.452 53.079 203.452H82.695C73.7544 224.533 68.8031 247.727 68.8031 272.087C68.8031 280.924 69.4566 289.61 70.7103 298.097C71.2337 301.643 71.8656 305.159 72.6041 308.636C94.1147 305.336 116.932 302.68 140.753 300.743L142.546 302.383L144.233 300.469C172.852 298.235 202.89 297.045 233.871 297.045C299.695 297.045 361.291 302.413 413.956 311.747C415.986 302.918 417.355 293.834 418.002 284.547C418.297 280.429 418.442 276.273 418.442 272.087C418.442 175.215 340.177 96.6914 243.623 96.6914C202.473 96.6914 164.651 110.957 134.789 134.821Z" fill="white"/>
</mask>
<g mask="url(#mask0_96_219)">
<path id="Fill 1" fill-rule="evenodd" clip-rule="evenodd" d="M33.342 320.083H426.777V88.3564H33.342V320.083Z" fill="#F1F2F7"/>
</g>
</g>
<g id="Group 6">
<mask id="mask1_96_219" style="mask-type:luminance" maskUnits="userSpaceOnUse" x="0" y="180" width="31" height="24">
<path id="Clip 5" fill-rule="evenodd" clip-rule="evenodd" d="M11.548 180.047C5.19635 180.047 0 185.3 0 191.717C0 198.133 5.19635 203.386 11.548 203.386H18.4581C24.8114 203.386 30.0078 198.133 30.0078 191.717C30.0078 185.3 24.8114 180.047 18.4581 180.047H11.548Z" fill="white"/>
</mask>
<g mask="url(#mask1_96_219)">
<path id="Fill 4" fill-rule="evenodd" clip-rule="evenodd" d="M-8.33569 211.722H38.3431V171.711H-8.33569V211.722Z" fill="#F1F2F7"/>
</g>
</g>
<g id="Group 9">
<mask id="mask2_96_219" style="mask-type:luminance" maskUnits="userSpaceOnUse" x="72" y="297" width="378" height="150">
<path id="Clip 8" fill-rule="evenodd" clip-rule="evenodd" d="M143.979 300.7L142.29 302.602L140.498 300.972C116.684 302.897 93.8727 305.533 72.3655 308.815C89.1215 387.639 159.306 446.783 243.343 446.783C282.692 446.783 318.999 433.809 348.219 411.925H379.322C385.59 411.925 390.72 406.809 390.72 400.559C390.72 397.438 389.434 394.588 387.369 392.535C385.308 390.473 382.451 389.193 379.322 389.193H365.795C359.525 389.193 354.395 384.078 354.395 377.827C354.395 374.704 355.681 371.855 357.746 369.801C359.807 367.739 362.664 366.46 365.795 366.46H438.602C444.872 366.46 450 361.346 450 355.092C450 351.97 448.715 349.121 446.649 347.069C444.582 345.006 441.738 343.726 438.602 343.726H402.901C407.461 333.595 411.078 322.956 413.637 311.908C360.984 302.634 299.403 297.297 233.594 297.297C202.621 297.297 172.588 298.479 143.979 300.7Z" fill="white"/>
</mask>
<g mask="url(#mask2_96_219)">
<path id="Fill 7" fill-rule="evenodd" clip-rule="evenodd" d="M64.0298 455.118H458.334V288.962H64.0298V455.118Z" fill="#E8EBF2"/>
</g>
</g>
<g id="Group 12">
<mask id="mask3_96_219" style="mask-type:luminance" maskUnits="userSpaceOnUse" x="143" y="276" width="274" height="36">
<path id="Clip 11" fill-rule="evenodd" clip-rule="evenodd" d="M383.058 298.917L365.456 282.785L346.622 296.765L338.726 285.887L307.558 296.765L235.758 285.887L194.022 297.41C206.784 296.984 219.75 296.765 232.889 296.765C298.624 296.765 360.14 302.235 412.737 311.747C414.761 302.748 416.13 293.493 416.775 284.029L410.817 276.738L383.058 298.917ZM143.371 300.254C159.815 298.944 176.728 297.987 194.022 297.41L163.191 277.292L143.371 300.254Z" fill="white"/>
</mask>
<g mask="url(#mask3_96_219)">
<path id="Fill 10" fill-rule="evenodd" clip-rule="evenodd" d="M135.036 320.083H425.111V268.403H135.036V320.083Z" fill="#E0E2EE"/>
</g>
</g>
<g id="Group 15">
<mask id="mask4_96_219" style="mask-type:luminance" maskUnits="userSpaceOnUse" x="140" y="300" width="4" height="2">
<path id="Clip 14" fill-rule="evenodd" clip-rule="evenodd" d="M140.036 300.318L141.753 301.746L143.37 300.078C142.257 300.151 141.141 300.231 140.036 300.318Z" fill="white"/>
</mask>
<g mask="url(#mask4_96_219)">
<path id="Fill 13" fill-rule="evenodd" clip-rule="evenodd" d="M131.701 310.081H151.706V291.743H131.701V310.081Z" fill="#F1F2F7"/>
</g>
</g>
<g id="Group 18">
<mask id="mask5_96_219" style="mask-type:luminance" maskUnits="userSpaceOnUse" x="70" y="270" width="71" height="39">
<path id="Clip 17" fill-rule="evenodd" clip-rule="evenodd" d="M70.0181 297.858C70.5415 301.41 71.1734 304.931 71.9086 308.414C93.4125 305.108 116.223 302.449 140.036 300.508L106.876 270.07L70.0181 297.858Z" fill="white"/>
</mask>
<g mask="url(#mask5_96_219)">
<path id="Fill 16" fill-rule="evenodd" clip-rule="evenodd" d="M61.6824 316.749H148.372V261.735H61.6824V316.749Z" fill="#E0E2EE"/>
</g>
</g>
<g id="Group 21">
<mask id="mask6_96_219" style="mask-type:luminance" maskUnits="userSpaceOnUse" x="181" y="362" width="131" height="13">
<path id="Clip 20" fill-rule="evenodd" clip-rule="evenodd" d="M181.241 368.792C181.241 372.012 210.351 374.626 246.26 374.626C282.168 374.626 311.277 372.012 311.277 368.792C311.277 365.571 282.168 362.957 246.26 362.957C210.351 362.957 181.241 365.571 181.241 368.792Z" fill="white"/>
</mask>
<g mask="url(#mask6_96_219)">
<path id="Fill 19" fill-rule="evenodd" clip-rule="evenodd" d="M172.909 382.962H319.613V354.621H172.909V382.962Z" fill="#D8DBEA"/>
</g>
</g>
<g id="Group 24">
<mask id="mask7_96_219" style="mask-type:luminance" maskUnits="userSpaceOnUse" x="401" y="388" width="25" height="24">
<path id="Clip 23" fill-rule="evenodd" clip-rule="evenodd" d="M401.771 400.104C401.771 406.522 407.022 411.773 413.44 411.773C419.859 411.773 425.11 406.522 425.11 400.104C425.11 393.687 419.859 388.434 413.44 388.434C407.022 388.434 401.771 393.687 401.771 400.104Z" fill="white"/>
</mask>
<g mask="url(#mask7_96_219)">
<path id="Fill 22" fill-rule="evenodd" clip-rule="evenodd" d="M393.434 420.109H433.445V380.098H393.434V420.109Z" fill="#E1E3EF"/>
</g>
</g>
<g id="Group 47">
<path id="Fill 25" fill-rule="evenodd" clip-rule="evenodd" d="M244.541 227.111C239.113 227.111 234.712 222.71 234.712 217.282C234.712 211.856 239.113 207.456 244.541 207.456C249.969 207.456 254.37 211.856 254.37 217.282C254.37 222.71 249.969 227.111 244.541 227.111ZM244.54 203.386C236.865 203.386 230.642 209.608 230.642 217.283C230.642 224.962 236.865 231.183 244.54 231.183C252.216 231.183 258.441 224.962 258.441 217.283C258.441 209.608 252.216 203.386 244.54 203.386Z" fill="#D8DBEA"/>
<path id="Fill 27" fill-rule="evenodd" clip-rule="evenodd" d="M282.21 347.59H206.875C199.373 347.59 193.288 341.508 193.288 334.005V264.727C193.288 237.678 215.421 215.547 242.468 215.547H246.615C273.666 215.547 295.795 237.678 295.795 264.727V334.005C295.795 341.508 289.713 347.59 282.21 347.59Z" fill="#D8DBEA"/>
<path id="Fill 29" fill-rule="evenodd" clip-rule="evenodd" d="M301.968 331.085H301.232C298.241 331.085 295.795 328.637 295.795 325.648V287.005C295.795 284.014 298.241 281.569 301.232 281.569H308.602C311.591 281.569 314.037 284.014 314.037 287.005V319.015C314.037 325.653 308.605 331.085 301.968 331.085Z" fill="url(#paint0_linear_96_219)"/>
<path id="Fill 31" fill-rule="evenodd" clip-rule="evenodd" d="M187.853 331.085H187.116C180.476 331.085 175.044 325.653 175.044 319.015V287.005C175.044 284.014 177.49 281.569 180.481 281.569H187.853C190.842 281.569 193.287 284.014 193.287 287.005V325.648C193.287 328.637 190.842 331.085 187.853 331.085Z" fill="url(#paint1_linear_96_219)"/>
<path id="Fill 33" fill-rule="evenodd" clip-rule="evenodd" d="M276.681 328.892L243.671 339.338L210.659 328.892V306.326H276.681V328.892Z" fill="#BEC0D6"/>
<path id="Fill 35" fill-rule="evenodd" clip-rule="evenodd" d="M224.018 334.896L222.47 336.44C221.183 337.722 219.099 337.722 217.81 336.44L216.263 334.896V320.464H224.018V334.896Z" fill="url(#paint2_linear_96_219)"/>
<path id="Fill 37" fill-rule="evenodd" clip-rule="evenodd" d="M221.707 332.356C221.707 333.223 221.005 333.923 220.14 333.923C219.273 333.923 218.572 333.223 218.572 332.356C218.572 331.489 219.273 330.789 220.14 330.789C221.005 330.789 221.707 331.489 221.707 332.356Z" fill="#F7FFF6"/>
<path id="Fill 39" fill-rule="evenodd" clip-rule="evenodd" d="M268.323 334.896L266.774 336.44C265.487 337.722 263.404 337.722 262.115 336.44L260.568 334.896V320.464H268.323V334.896Z" fill="url(#paint3_linear_96_219)"/>
<path id="Fill 41" fill-rule="evenodd" clip-rule="evenodd" d="M266.012 332.356C266.012 333.223 265.31 333.923 264.445 333.923C263.578 333.923 262.876 333.223 262.876 332.356C262.876 331.489 263.578 330.789 264.445 330.789C265.31 330.789 266.012 331.489 266.012 332.356Z" fill="#F7FFF6"/>
<path id="Fill 43" fill-rule="evenodd" clip-rule="evenodd" d="M290.873 267.269V274.617V289.873L203.854 248.195C209.639 233.408 224.094 222.88 240.861 222.88H248.227C270.083 222.88 290.873 245.395 290.873 267.269Z" fill="white"/>
<path id="Fill 45" fill-rule="evenodd" clip-rule="evenodd" d="M203.851 271.109V263.761V248.505L290.87 290.184C285.087 304.97 270.631 315.497 253.864 315.497H246.498C224.641 315.497 203.851 292.983 203.851 271.109Z" fill="url(#paint4_linear_96_219)"/>
</g>
<g id="Bee">
<path id="Stroke 3" d="M272.536 70.0181C214.787 74.9066 193.562 123.787 210.95 152.28C223.219 172.383 244.009 199.552 282.764 193.036C321.517 186.517 324.782 150.652 304.373 145.773C283.963 140.896 211.253 163.649 219.471 216.211C225.402 254.137 276.817 265.069 276.817 265.069" stroke="#D7DAE9" stroke-width="2" stroke-dasharray="7"/>
<path id="Fill 5" fill-rule="evenodd" clip-rule="evenodd" d="M305.914 40.0104C305.914 40.0104 314.189 18.3941 315.061 9.9851C315.52 5.59115 308.239 -6.64257 299.717 4.67362C291.195 15.9898 295.083 29.8649 305.914 40.0104Z" fill="#D8DBEA"/>
<path id="Fill 7_2" fill-rule="evenodd" clip-rule="evenodd" d="M276.551 16.4685C266.857 13.1902 262.468 15.7462 260.599 20.8481C258.727 25.9516 261.339 35.6658 275.96 37.8803C290.583 40.0947 305.079 40.0097 305.079 40.0097C305.079 40.0097 286.245 19.7468 276.551 16.4685Z" fill="#D8DBEA"/>
<path id="Fill 9" fill-rule="evenodd" clip-rule="evenodd" d="M304.273 44.2938C304.493 43.3902 304.784 42.5241 305.108 41.6777C303.318 41.9604 301.497 42.3575 299.665 42.8951C297.677 43.4768 295.821 44.2398 294.076 45.114C293.318 46.5454 292.705 48.0748 292.306 49.717C289.85 59.8265 295.649 70.016 305.393 73.3526C306.448 73.1435 307.508 72.9016 308.57 72.5912C311.537 71.7219 314.275 70.5716 316.749 69.2382C307.234 65.0634 301.757 54.6451 304.273 44.2938Z" fill="#D8DBEA"/>
<path id="Fill 11" fill-rule="evenodd" clip-rule="evenodd" d="M290.361 49.5656C290.594 48.5669 290.91 47.6119 291.26 46.6787C282.83 52.0792 278.11 60.4607 278.888 65.3483C273.501 67.6636 270.07 69.6139 270.07 69.6139C270.07 69.6139 274.135 69.3045 280.057 68.1663C283.229 72.8017 292.022 75.9055 301.745 74.7924C292.937 70.2377 287.966 59.8722 290.361 49.5656Z" fill="#D8DBEA"/>
<path id="Fill 13_2" fill-rule="evenodd" clip-rule="evenodd" d="M318.278 53.2306C316.045 52.6947 314.661 50.4515 315.198 48.2049C315.734 45.9738 317.991 44.5911 320.223 45.127C322.466 45.6664 323.837 47.9181 323.303 50.151C322.763 52.3959 320.523 53.7682 318.278 53.2306ZM328.061 50.2297C326.264 44.0049 318.001 40.7903 308.253 41.8911C307.846 42.8557 307.499 43.8732 307.252 44.927C305.081 54.1665 310.095 63.4605 318.598 66.6842C325.693 62.1705 329.677 55.7791 328.061 50.2297Z" fill="#D8DBEA"/>
</g>
</g>
<defs>
<linearGradient id="paint0_linear_96_219" x1="304.916" y1="256.811" x2="272.793" y2="268.644" gradientUnits="userSpaceOnUse">
<stop stop-color="#4467A1"/>
<stop offset="1" stop-color="#72A7FF"/>
</linearGradient>
<linearGradient id="paint1_linear_96_219" x1="184.166" y1="256.811" x2="152.04" y2="268.646" gradientUnits="userSpaceOnUse">
<stop stop-color="#4467A1"/>
<stop offset="1" stop-color="#72A7FF"/>
</linearGradient>
<linearGradient id="paint2_linear_96_219" x1="220.141" y1="311.995" x2="207.318" y2="317.866" gradientUnits="userSpaceOnUse">
<stop stop-color="#4467A1"/>
<stop offset="1" stop-color="#72A7FF"/>
</linearGradient>
<linearGradient id="paint3_linear_96_219" x1="264.446" y1="311.995" x2="251.623" y2="317.866" gradientUnits="userSpaceOnUse">
<stop stop-color="#4467A1"/>
<stop offset="1" stop-color="#72A7FF"/>
</linearGradient>
<linearGradient id="paint4_linear_96_219" x1="247.36" y1="215.009" x2="182.596" y2="299.134" gradientUnits="userSpaceOnUse">
<stop stop-color="#72A7FF"/>
<stop offset="1" stop-color="#4467A1"/>
</linearGradient>
</defs>
</svg>
