<svg width="257" height="120" viewBox="0 0 257 120" fill="none" xmlns="http://www.w3.org/2000/svg">
<rect width="257" height="120" rx="24" fill="white"/>
<path d="M42.6667 35.6667V41C42.6667 41.7072 42.9477 42.3855 43.4478 42.8856C43.9479 43.3857 44.6262 43.6667 45.3334 43.6667H50.6667" stroke="#F06C3E" stroke-width="2.5" stroke-linecap="round" stroke-linejoin="round"/>
<path d="M29.3333 42.3333V38.3333C29.3333 37.6261 29.6142 36.9478 30.1143 36.4477C30.6144 35.9476 31.2927 35.6667 31.9999 35.6667" stroke="#F06C3E" stroke-width="2.5" stroke-linecap="round" stroke-linejoin="round"/>
<path d="M29.4172 60.9987C29.6784 61.4612 30.0717 61.8353 30.5468 62.0728C31.0219 62.3104 31.5572 62.4006 32.0839 62.332L47.9999 62.3333C48.7071 62.3333 49.3854 62.0524 49.8855 61.5523C50.3856 61.0522 50.6666 60.3739 50.6666 59.6667V42.3333L43.9999 35.6667H31.9999" stroke="#F06C3E" stroke-width="2.5" stroke-linecap="round" stroke-linejoin="round"/>
<path d="M30.6667 47.6667L26.6667 51.6667" stroke="#F06C3E" stroke-width="2.5" stroke-linecap="round" stroke-linejoin="round"/>
<path d="M30.6667 55.6667L26.6667 51.6667H40.0001" stroke="#F06C3E" stroke-width="2.5" stroke-linecap="round" stroke-linejoin="round"/>
<path d="M86.864 57.24C85.6 57.24 84.496 57.008 83.552 56.544C82.624 56.08 81.776 55.384 81.008 54.456L83.12 52.32C83.616 52.976 84.176 53.504 84.8 53.904C85.44 54.288 86.184 54.48 87.032 54.48C87.896 54.48 88.576 54.304 89.072 53.952C89.568 53.6 89.816 53.104 89.816 52.464C89.816 51.952 89.672 51.536 89.384 51.216C89.096 50.896 88.712 50.624 88.232 50.4C87.768 50.176 87.256 49.976 86.696 49.8C86.136 49.608 85.576 49.392 85.016 49.152C84.456 48.912 83.936 48.616 83.456 48.264C82.992 47.896 82.616 47.432 82.328 46.872C82.056 46.296 81.92 45.576 81.92 44.712C81.92 43.688 82.16 42.816 82.64 42.096C83.136 41.376 83.808 40.824 84.656 40.44C85.52 40.056 86.496 39.864 87.584 39.864C88.64 39.864 89.616 40.08 90.512 40.512C91.408 40.944 92.152 41.504 92.744 42.192L90.608 44.328C90.128 43.784 89.632 43.368 89.12 43.08C88.624 42.792 88.088 42.648 87.512 42.648C86.728 42.648 86.12 42.8 85.688 43.104C85.256 43.392 85.04 43.84 85.04 44.448C85.04 44.912 85.184 45.288 85.472 45.576C85.76 45.864 86.136 46.112 86.6 46.32C87.08 46.528 87.6 46.728 88.16 46.92C88.736 47.112 89.304 47.328 89.864 47.568C90.44 47.808 90.96 48.12 91.424 48.504C91.904 48.888 92.288 49.384 92.576 49.992C92.864 50.584 93.008 51.32 93.008 52.2C93.008 53.768 92.456 55 91.352 55.896C90.264 56.792 88.768 57.24 86.864 57.24ZM86.288 55.752H88.568V59.4H86.288V55.752ZM88.568 41.472H86.288V37.704H88.568V41.472ZM94.874 55.128L101.234 48.48C101.682 48 102.042 47.576 102.314 47.208C102.602 46.824 102.81 46.464 102.938 46.128C103.066 45.776 103.13 45.424 103.13 45.072C103.13 44.368 102.898 43.816 102.434 43.416C101.986 43.016 101.402 42.816 100.682 42.816C99.946 42.816 99.29 43.008 98.714 43.392C98.154 43.776 97.626 44.384 97.13 45.216L94.898 43.32C95.57 42.184 96.402 41.328 97.394 40.752C98.402 40.16 99.554 39.864 100.85 39.864C101.954 39.864 102.914 40.08 103.73 40.512C104.562 40.944 105.202 41.544 105.65 42.312C106.098 43.08 106.322 43.976 106.322 45C106.322 45.688 106.234 46.312 106.058 46.872C105.898 47.432 105.618 47.992 105.218 48.552C104.834 49.096 104.298 49.712 103.61 50.4L98.978 55.128H94.874ZM94.874 57V55.128L97.658 54.168H106.682V57H94.874ZM113.492 57.24C112.356 57.24 111.316 57.04 110.372 56.64C109.428 56.224 108.636 55.632 107.996 54.864L110.156 52.728C110.476 53.208 110.932 53.592 111.524 53.88C112.116 54.168 112.756 54.312 113.444 54.312C114.084 54.312 114.636 54.2 115.1 53.976C115.564 53.736 115.924 53.408 116.18 52.992C116.452 52.56 116.588 52.064 116.588 51.504C116.588 50.912 116.452 50.408 116.18 49.992C115.924 49.576 115.548 49.256 115.052 49.032C114.556 48.808 113.964 48.696 113.276 48.696C112.972 48.696 112.66 48.72 112.34 48.768C112.02 48.8 111.748 48.856 111.524 48.936L112.964 47.112C113.364 46.984 113.756 46.88 114.14 46.8C114.54 46.704 114.908 46.656 115.244 46.656C116.108 46.656 116.884 46.864 117.572 47.28C118.276 47.68 118.828 48.256 119.228 49.008C119.644 49.744 119.852 50.616 119.852 51.624C119.852 52.744 119.588 53.728 119.06 54.576C118.532 55.408 117.788 56.064 116.828 56.544C115.884 57.008 114.772 57.24 113.492 57.24ZM111.524 48.936V47.064L115.844 42.048L119.588 42L115.124 47.112L111.524 48.936ZM108.932 42.96V40.128H119.588V42L116.924 42.96H108.932ZM128.679 57.24C127.351 57.24 126.151 56.88 125.079 56.16C124.007 55.44 123.151 54.424 122.511 53.112C121.887 51.8 121.575 50.272 121.575 48.528C121.575 46.784 121.887 45.264 122.511 43.968C123.135 42.672 123.975 41.664 125.031 40.944C126.103 40.224 127.295 39.864 128.607 39.864C129.951 39.864 131.151 40.224 132.207 40.944C133.279 41.664 134.127 42.68 134.751 43.992C135.375 45.288 135.687 46.816 135.687 48.576C135.687 50.32 135.375 51.848 134.751 53.16C134.127 54.456 133.287 55.464 132.231 56.184C131.175 56.888 129.991 57.24 128.679 57.24ZM128.631 54.288C129.399 54.288 130.063 54.072 130.623 53.64C131.183 53.208 131.615 52.568 131.919 51.72C132.239 50.872 132.399 49.816 132.399 48.552C132.399 47.288 132.239 46.232 131.919 45.384C131.615 44.536 131.175 43.904 130.599 43.488C130.039 43.056 129.375 42.84 128.607 42.84C127.855 42.84 127.199 43.056 126.639 43.488C126.079 43.904 125.639 44.536 125.319 45.384C125.015 46.216 124.863 47.264 124.863 48.528C124.863 49.808 125.015 50.872 125.319 51.72C125.639 52.568 126.079 53.208 126.639 53.64C127.199 54.072 127.863 54.288 128.631 54.288ZM144.523 57.24C143.195 57.24 141.995 56.88 140.923 56.16C139.851 55.44 138.995 54.424 138.355 53.112C137.731 51.8 137.419 50.272 137.419 48.528C137.419 46.784 137.731 45.264 138.355 43.968C138.979 42.672 139.819 41.664 140.875 40.944C141.947 40.224 143.139 39.864 144.451 39.864C145.795 39.864 146.995 40.224 148.051 40.944C149.123 41.664 149.971 42.68 150.595 43.992C151.219 45.288 151.531 46.816 151.531 48.576C151.531 50.32 151.219 51.848 150.595 53.16C149.971 54.456 149.131 55.464 148.075 56.184C147.019 56.888 145.835 57.24 144.523 57.24ZM144.475 54.288C145.243 54.288 145.907 54.072 146.467 53.64C147.027 53.208 147.459 52.568 147.763 51.72C148.083 50.872 148.243 49.816 148.243 48.552C148.243 47.288 148.083 46.232 147.763 45.384C147.459 44.536 147.019 43.904 146.443 43.488C145.883 43.056 145.219 42.84 144.451 42.84C143.699 42.84 143.043 43.056 142.483 43.488C141.923 43.904 141.483 44.536 141.163 45.384C140.859 46.216 140.707 47.264 140.707 48.528C140.707 49.808 140.859 50.872 141.163 51.72C141.483 52.568 141.923 53.208 142.483 53.64C143.043 54.072 143.707 54.288 144.475 54.288Z" fill="#505050"/>
<path d="M84.776 83.12C84.176 83.12 83.616 83.008 83.096 82.784C82.576 82.56 82.12 82.252 81.728 81.86C81.336 81.46 81.028 81 80.804 80.48C80.588 79.952 80.48 79.388 80.48 78.788C80.48 78.188 80.588 77.628 80.804 77.108C81.028 76.588 81.332 76.132 81.716 75.74C82.108 75.34 82.56 75.032 83.072 74.816C83.592 74.592 84.152 74.48 84.752 74.48C85.352 74.48 85.908 74.592 86.42 74.816C86.94 75.032 87.396 75.34 87.788 75.74C88.18 76.132 88.484 76.592 88.7 77.12C88.924 77.64 89.036 78.2 89.036 78.8C89.036 79.4 88.924 79.964 88.7 80.492C88.484 81.012 88.18 81.468 87.788 81.86C87.404 82.252 86.952 82.56 86.432 82.784C85.92 83.008 85.368 83.12 84.776 83.12ZM84.752 81.8C85.32 81.8 85.816 81.672 86.24 81.416C86.672 81.16 87.008 80.808 87.248 80.36C87.496 79.904 87.62 79.38 87.62 78.788C87.62 78.348 87.548 77.948 87.404 77.588C87.268 77.22 87.072 76.904 86.816 76.64C86.56 76.368 86.256 76.16 85.904 76.016C85.56 75.872 85.176 75.8 84.752 75.8C84.192 75.8 83.696 75.928 83.264 76.184C82.84 76.432 82.504 76.78 82.256 77.228C82.016 77.676 81.896 78.196 81.896 78.788C81.896 79.228 81.964 79.636 82.1 80.012C82.244 80.38 82.44 80.696 82.688 80.96C82.944 81.224 83.248 81.432 83.6 81.584C83.952 81.728 84.336 81.8 84.752 81.8ZM93.0177 83L89.6217 74.6H91.1217L93.7737 81.404H93.2457L95.9218 74.6H97.3978L93.9778 83H93.0177ZM98.8412 83V74.6H100.221V83H98.8412ZM99.7892 83V81.74H104.493V83H99.7892ZM99.7892 79.316V78.104H104.085V79.316H99.7892ZM99.7892 75.86V74.6H104.433V75.86H99.7892ZM107.107 79.436V78.296H109.231C109.655 78.296 109.983 78.188 110.215 77.972C110.455 77.748 110.575 77.44 110.575 77.048C110.575 76.696 110.459 76.4 110.227 76.16C109.995 75.92 109.667 75.8 109.243 75.8H107.107V74.6H109.303C109.831 74.6 110.295 74.708 110.695 74.924C111.095 75.132 111.403 75.42 111.619 75.788C111.843 76.148 111.955 76.56 111.955 77.024C111.955 77.512 111.843 77.936 111.619 78.296C111.403 78.656 111.095 78.936 110.695 79.136C110.295 79.336 109.831 79.436 109.303 79.436H107.107ZM106.159 83V74.6H107.539V83H106.159ZM110.767 83L107.827 79.352L109.111 78.884L112.507 83H110.767ZM114.718 83V81.74H116.926C117.502 81.74 118.006 81.616 118.438 81.368C118.878 81.12 119.218 80.776 119.458 80.336C119.706 79.888 119.83 79.372 119.83 78.788C119.83 78.212 119.706 77.704 119.458 77.264C119.21 76.824 118.866 76.48 118.426 76.232C117.994 75.984 117.494 75.86 116.926 75.86H114.718V74.6H116.962C117.57 74.6 118.134 74.708 118.654 74.924C119.174 75.132 119.626 75.428 120.01 75.812C120.402 76.188 120.706 76.632 120.922 77.144C121.138 77.648 121.246 78.2 121.246 78.8C121.246 79.392 121.138 79.944 120.922 80.456C120.706 80.968 120.406 81.416 120.022 81.8C119.638 82.176 119.186 82.472 118.666 82.688C118.146 82.896 117.586 83 116.986 83H114.718ZM113.77 83V74.6H115.15V83H113.77ZM126.133 83.12C125.501 83.12 124.933 82.976 124.429 82.688C123.925 82.4 123.525 82.008 123.229 81.512C122.941 81.008 122.797 80.44 122.797 79.808V74.6H124.177V79.796C124.177 80.204 124.261 80.56 124.429 80.864C124.605 81.16 124.841 81.392 125.137 81.56C125.433 81.72 125.765 81.8 126.133 81.8C126.509 81.8 126.841 81.72 127.129 81.56C127.417 81.392 127.645 81.16 127.813 80.864C127.981 80.56 128.065 80.208 128.065 79.808V74.6H129.445V79.82C129.445 80.452 129.301 81.016 129.013 81.512C128.725 82.008 128.333 82.4 127.837 82.688C127.341 82.976 126.773 83.12 126.133 83.12ZM131.418 83V74.6H132.798V83H131.418ZM132.366 83V81.74H137.07V83H132.366ZM132.366 79.316V78.104H136.662V79.316H132.366ZM132.366 75.86V74.6H137.01V75.86H132.366ZM140.415 83L143.871 74.6H144.831L148.263 83H146.775L144.087 76.196H144.591L141.879 83H140.415ZM142.119 81.38V80.18H146.571V81.38H142.119ZM149.611 83V74.6H150.571L154.063 80.348H153.439L156.931 74.6H157.891V83H156.511V77.024L156.823 77.108L154.231 81.368H153.271L150.679 77.108L150.991 77.024V83H149.611ZM163.817 83.12C163.217 83.12 162.657 83.008 162.137 82.784C161.617 82.56 161.161 82.252 160.769 81.86C160.377 81.46 160.069 81 159.845 80.48C159.629 79.952 159.521 79.388 159.521 78.788C159.521 78.188 159.629 77.628 159.845 77.108C160.069 76.588 160.373 76.132 160.757 75.74C161.149 75.34 161.601 75.032 162.113 74.816C162.633 74.592 163.193 74.48 163.793 74.48C164.393 74.48 164.949 74.592 165.461 74.816C165.981 75.032 166.437 75.34 166.829 75.74C167.221 76.132 167.525 76.592 167.741 77.12C167.965 77.64 168.077 78.2 168.077 78.8C168.077 79.4 167.965 79.964 167.741 80.492C167.525 81.012 167.221 81.468 166.829 81.86C166.445 82.252 165.993 82.56 165.473 82.784C164.961 83.008 164.409 83.12 163.817 83.12ZM163.793 81.8C164.361 81.8 164.857 81.672 165.281 81.416C165.713 81.16 166.049 80.808 166.289 80.36C166.537 79.904 166.661 79.38 166.661 78.788C166.661 78.348 166.589 77.948 166.445 77.588C166.309 77.22 166.113 76.904 165.857 76.64C165.601 76.368 165.297 76.16 164.945 76.016C164.601 75.872 164.217 75.8 163.793 75.8C163.233 75.8 162.737 75.928 162.305 76.184C161.881 76.432 161.545 76.78 161.297 77.228C161.057 77.676 160.937 78.196 160.937 78.788C160.937 79.228 161.005 79.636 161.141 80.012C161.285 80.38 161.481 80.696 161.729 80.96C161.985 81.224 162.289 81.432 162.641 81.584C162.993 81.728 163.377 81.8 163.793 81.8ZM172.96 83.12C172.328 83.12 171.76 82.976 171.256 82.688C170.752 82.4 170.352 82.008 170.056 81.512C169.768 81.008 169.624 80.44 169.624 79.808V74.6H171.004V79.796C171.004 80.204 171.088 80.56 171.256 80.864C171.432 81.16 171.668 81.392 171.964 81.56C172.26 81.72 172.592 81.8 172.96 81.8C173.336 81.8 173.668 81.72 173.956 81.56C174.244 81.392 174.472 81.16 174.64 80.864C174.808 80.56 174.892 80.208 174.892 79.808V74.6H176.272V79.82C176.272 80.452 176.128 81.016 175.84 81.512C175.552 82.008 175.16 82.4 174.664 82.688C174.168 82.976 173.6 83.12 172.96 83.12ZM178.245 83V74.6H179.205L179.625 76.184V83H178.245ZM184.065 83L179.037 76.436L179.205 74.6L184.233 81.164L184.065 83ZM184.065 83L183.645 81.524V74.6H185.025V83H184.065ZM189.199 83V74.84H190.579V83H189.199ZM186.463 75.86V74.6H193.315V75.86H186.463Z" fill="#A1A1A1"/>
</svg>
